# 
# 
mtllib sandbags.mtl
v -1.492163 0.000000 -1.072514
v -2.630948 2.148373 -0.530120
v 1.585798 0.000000 -1.224912
v -6.811295 2.182772 0.006273
v -7.823682 1.233984 -0.511321
v -7.855682 1.281584 0.006273
v -2.630948 2.284771 0.006273
v -6.692497 2.107573 -0.439322
v 3.306176 0.000000 -1.072514
v 2.771783 2.148373 -0.480121
v 7.155727 0.992387 -0.949715
v 6.255739 0.000000 -1.205712
v 7.827319 0.000000 -1.091313
v -2.629348 0.000000 -1.187712
v -6.196903 0.000000 -1.220912
v -7.163291 0.992387 -0.949715
v 2.771783 2.148373 0.492667
v 5.546547 -0.000000 1.203057
v 7.155727 0.992387 0.962261
v -5.478512 -0.000000 1.218257
v -7.163291 0.992387 0.962261
v -7.834882 -0.000000 1.103859
v -1.399764 -0.000000 1.145458
v -0.136580 -0.000000 1.184658
v -2.630948 2.148373 0.492667
v -8.365675 -0.000000 0.006273
v -2.629348 -0.000000 1.085059
v -7.823682 1.233984 0.523866
v -6.689297 2.112773 0.449867
v -8.264477 -0.000000 0.610665
v -7.834882 0.000000 -1.091313
v -8.264477 0.000000 -0.598120
v 6.684933 2.107573 -0.439322
v 7.816119 1.233984 -0.511321
v 6.945330 2.047174 0.006273
v 7.848118 1.281584 0.006273
v 7.816119 1.233984 0.523866
v 6.681733 2.112773 0.449867
v 6.662134 2.237172 0.006273
v 7.827319 -0.000000 1.103859
v 8.256913 -0.000000 0.610665
v 2.771783 2.284771 0.006273
v 3.306176 -0.000000 1.085059
v 8.358111 -0.000000 0.006273
v 8.256913 0.000000 -0.598120
vt -1.659141 -0.000090
vt -1.205400 0.678560
vt -2.886591 -0.000090
vt 0.813890 0.633480
vt 1.004010 0.367410
vt 0.813890 0.375740
vt -1.205400 0.995100
vt 0.145530 0.678560
vt 0.170520 0.995100
vt -3.572590 -0.000090
vt -3.342291 0.678560
vt -4.827482 0.400730
vt -4.390889 -0.000090
vt -4.827482 -0.000090
vt -1.205400 -0.000090
vt -0.166110 -0.000090
vt 0.311640 0.400730
vt 1.083880 0.636910
vt 1.320550 0.400730
vt 0.171010 0.636420
vt -4.194398 -0.000090
vt -0.375340 -0.000090
vt 0.311640 -0.000090
vt -1.695891 -0.000090
vt -2.199609 -0.000090
vt 0.813890 -0.000580
vt 0.623770 0.376720
vt 0.589471 0.633480
vt 0.518420 0.648180
vt 0.308210 0.400730
vt 0.541940 -0.000580
vt 0.308210 -0.000580
vt 0.173460 0.630050
vt 1.032920 0.626130
vt 1.320550 -0.000580
vt 1.085840 -0.000580
vt -4.686851 0.636420
vt -5.064149 0.636910
vt -5.144021 0.367410
vt -5.334141 0.636910
vt -5.334141 0.375740
vt -5.523767 0.367410
vt -5.552680 0.636910
vt -5.600704 0.636910
vt -5.839816 0.400730
vt 0.415030 0.925030
vt 0.273910 0.666310
vt 0.279300 0.926500
vt -5.839816 -0.000580
vt -5.606087 -0.000580
vt -3.349149 0.995100
vt -4.661370 0.678560
vt -4.686361 0.995100
vt -5.334141 -0.000580
vt 0.413560 0.924540
vt -5.061701 -0.000580
vt -4.827482 -0.000580
vt -5.115111 0.636910
vn 0.024140 0.256722 -0.966155
vn 0.014039 0.602893 -0.797662
vn 0.015534 0.335185 -0.942015
vn -0.446120 0.894955 -0.002380
vn -0.711814 0.537614 -0.451918
vn -0.814692 0.579852 0.000000
vn -0.012787 0.999878 0.006287
vn -0.218665 0.815577 -0.535691
vn 0.002289 0.315226 -0.949004
vn 0.000549 0.647938 -0.761681
vn 0.128513 0.350505 -0.927671
vn 0.014069 0.237739 -0.971191
vn 0.419507 0.309122 -0.853481
vn 0.039766 0.285470 -0.957549
vn -0.034272 0.232246 -0.972045
vn -0.140629 0.354595 -0.924375
vn -0.010132 0.587115 0.809412
vn -0.012360 0.234779 0.971954
vn 0.158788 0.363201 0.918058
vn -0.001740 0.246956 0.968993
vn -0.124851 0.354991 0.926481
vn -0.412824 0.304910 0.858241
vn -0.038545 0.270211 0.962004
vn -0.001282 0.305216 0.952269
vn -0.005249 0.586596 0.809839
vn -0.933683 0.358013 0.000000
vn 0.009674 0.283822 0.958800
vn -0.712088 0.537645 0.451430
vn -0.215796 0.814264 0.538835
vn -0.851833 0.332743 0.404492
vn -0.421247 0.310221 -0.852229
vn -0.851833 0.332743 -0.404492
vn 0.279000 0.821039 -0.498001
vn 0.713553 0.540757 -0.445418
vn 0.602832 0.797845 -0.001221
vn 0.812189 0.583331 0.000000
vn 0.713797 0.540757 0.444990
vn 0.279427 0.822413 0.495499
vn 0.299478 0.954070 -0.003662
vn 0.411420 0.304025 0.859218
vn 0.851833 0.332743 0.404492
vn 0.006561 0.999969 0.001862
vn -0.007874 0.285165 0.958434
vn 0.933683 0.358013 0.000000
vn 0.851833 0.332743 -0.404492
usemtl sandbags
s 1
f 1/1/1 2/2/2 3/3/3
f 4/4/4 5/5/5 6/6/6
f 7/7/7 8/8/8 4/9/4
f 9/10/9 10/11/10 11/12/11
f 12/13/12 11/12/11 13/14/13
f 14/15/14 15/16/15 16/17/16
f 3/3/3 2/2/2 9/10/9
f 8/18/8 16/19/16 5/5/5
f 16/17/16 8/20/8 2/2/2
f 17/11/17 18/21/18 19/12/19
f 20/22/20 21/17/21 22/23/22
f 23/24/23 24/25/24 25/2/25
f 5/5/5 26/26/26 6/6/6
f 27/15/27 23/24/23 25/2/25
f 4/4/4 6/6/6 28/27/28
f 28/27/28 29/28/29 4/4/4
f 29/29/29 28/27/28 21/30/21
f 28/27/28 30/31/30 22/32/22
f 22/32/22 21/30/21 28/27/28
f 29/8/29 25/2/25 7/7/7
f 7/7/7 4/9/4 29/8/29
f 28/27/28 6/6/6 26/26/26
f 26/26/26 30/31/30 28/27/28
f 27/15/27 21/17/21 20/22/20
f 27/15/27 25/2/25 21/17/21
f 21/17/21 25/2/25 29/33/29
f 8/34/8 5/5/5 4/4/4
f 5/5/5 31/35/31 32/36/32
f 31/35/31 5/5/5 16/19/16
f 8/8/8 7/7/7 2/2/2
f 26/26/26 5/5/5 32/36/32
f 15/16/15 31/23/31 16/17/16
f 14/15/14 16/17/16 2/2/2
f 11/12/11 10/11/10 33/37/33
f 33/38/33 34/39/34 11/12/11
f 35/40/35 36/41/36 34/39/34
f 35/40/35 37/42/37 36/41/36
f 37/42/37 35/40/35 38/43/38
f 38/44/38 19/45/19 37/42/37
f 39/46/39 38/47/38 35/48/35
f 37/42/37 40/49/40 41/50/41
f 40/49/40 37/42/37 19/45/19
f 42/51/42 25/2/25 17/11/17
f 25/2/25 42/51/42 7/7/7
f 24/25/24 43/10/43 25/2/25
f 43/10/43 17/11/17 25/2/25
f 38/52/38 42/51/42 17/11/17
f 42/51/42 38/52/38 39/53/39
f 37/42/37 44/54/44 36/41/36
f 44/54/44 37/42/37 41/50/41
f 18/21/18 40/14/40 19/12/19
f 43/10/43 18/21/18 17/11/17
f 19/12/19 38/37/38 17/11/17
f 35/48/35 33/47/33 39/55/39
f 2/2/2 7/7/7 42/51/42
f 2/2/2 1/1/1 14/15/14
f 42/51/42 39/53/39 33/52/33
f 34/39/34 36/41/36 44/54/44
f 44/54/44 45/56/45 34/39/34
f 9/10/9 11/12/11 12/13/12
f 42/51/42 10/11/10 2/2/2
f 13/57/13 11/12/11 34/39/34
f 34/39/34 45/56/45 13/57/13
f 33/52/33 10/11/10 42/51/42
f 9/10/9 2/2/2 10/11/10
f 33/58/33 35/40/35 34/39/34
