# 
# 
mtllib canister.mtl
v -0.138920 0.849600 0.103460
v -0.356440 0.730960 -0.103460
v -0.356440 0.730960 0.103460
v -0.138920 0.849600 -0.103460
v 0.139780 0.849600 0.103460
v 0.139780 0.849600 -0.103460
v 0.238400 0.958980 0.103460
v 0.238400 0.958980 -0.103460
v 0.277840 0.982420 0.103460
v 0.277840 0.982420 -0.103460
v 0.315920 0.984380 0.103460
v 0.315920 0.984380 -0.103460
v 0.346440 0.972160 0.103460
v 0.346440 0.972160 -0.103460
v 0.365480 0.947760 0.103460
v 0.365480 0.947760 -0.103460
v -0.377680 0.692380 -0.103460
v -0.377680 0.692380 0.103460
v -0.377680 0.053080 -0.103460
v -0.377680 0.053080 0.103460
v -0.359380 0.019820 -0.103460
v -0.359380 0.019820 0.103460
v 0.377680 0.916500 0.103460
v 0.377680 0.916500 -0.103460
v 0.377680 0.053080 0.103460
v 0.377680 0.053080 -0.103460
v 0.359380 0.019820 0.103460
v 0.359380 0.019820 -0.103460
v -0.120360 0.847660 0.040680
v -0.114740 0.847660 0.040680
v -0.120360 0.975100 0.020500
v -0.114740 0.975100 0.020500
v -0.114740 0.975100 -0.021780
v -0.120360 0.975100 -0.021780
v -0.120360 0.847660 -0.042140
v -0.114740 0.847660 -0.042140
v -0.115420 0.951660 0.022040
v 0.283200 0.929680 0.000000
v 0.283200 0.951660 0.022040
v -0.115420 0.929680 -0.000000
v 0.283200 0.951660 -0.022040
v -0.115420 0.951660 -0.022040
v -0.115420 0.973640 -0.000000
v 0.283200 0.973640 0.000000
v -0.189820 0.901360 0.083860
v -0.176140 0.881340 0.059020
v -0.178960 0.902840 0.059020
v -0.186640 0.879400 0.083860
v -0.207040 0.807120 0.059020
v -0.217900 0.897460 0.100220
v -0.205680 0.861820 0.100220
v -0.301520 0.886240 0.100220
v -0.231820 0.791020 0.096740
v -0.254160 0.782720 0.100220
v -0.279060 0.770020 0.083680
v -0.329580 0.882320 0.083860
v -0.338620 0.880860 0.059020
v -0.285880 0.763680 0.059020
v -0.279060 0.770020 0.034300
v -0.329580 0.882320 0.034120
v -0.301520 0.886240 0.017760
v -0.254160 0.782720 0.017760
v -0.205680 0.861820 0.017760
v -0.231820 0.791020 0.021280
v -0.186640 0.879400 0.034180
v -0.189820 0.901360 0.034120
v -0.217900 0.897460 0.017760
v 0.324700 0.000000 0.103460
v 0.324700 -0.000000 -0.103460
v -0.324700 0.000000 0.103460
v -0.324700 -0.000000 -0.103460
v 0.259760 0.952640 0.122860
v 0.305900 0.969240 0.122860
v 0.337900 0.957520 0.122860
v 0.358160 0.922360 0.122860
v 0.145380 0.831060 0.122860
v -0.145380 0.828120 0.122860
v -0.342280 0.716800 0.122860
v -0.358400 0.687020 0.122860
v -0.358400 0.053080 0.122860
v -0.334960 0.019600 0.122860
v 0.331780 0.019600 0.122860
v 0.358400 0.053080 0.122860
v 0.259760 0.952640 -0.122860
v 0.305900 0.969240 -0.122860
v 0.337900 0.957520 -0.122860
v 0.358160 0.922360 -0.122860
v 0.145380 0.831060 -0.122860
v -0.145380 0.828120 -0.122860
v -0.342280 0.716800 -0.122860
v -0.358400 0.687020 -0.122860
v -0.358400 0.053080 -0.122860
v -0.334960 0.019600 -0.122860
v 0.331780 0.019600 -0.122860
v 0.358400 0.053080 -0.122860
vt 0.788574 0.547852
vt 0.972656 0.768555
vt 0.788574 0.768555
vt 0.972656 0.547852
vt 0.788574 0.299805
vt 0.972656 0.299805
vt 0.788574 0.168945
vt 0.972656 0.168945
vt 0.788574 0.127930
vt 0.972656 0.127930
vt 0.788574 0.094238
vt 0.972656 0.094238
vt 0.788574 0.064941
vt 0.972656 0.064941
vt 0.788574 0.037598
vt 0.972656 0.037598
vt 0.788574 0.728027
vt 0.973145 0.767456
vt 0.788574 0.767456
vt 0.973145 0.728027
vt 0.788574 0.158203
vt 0.973145 0.158203
vt 0.788574 0.124512
vt 0.973145 0.124512
vt 0.788574 0.812134
vt 0.973145 0.842041
vt 0.788574 0.842041
vt 0.973145 0.812134
vt 0.788574 0.042480
vt 0.973145 0.042480
vt 0.788574 0.008301
vt 0.973145 0.008301
vt 0.747070 0.987236
vt 0.746094 0.991249
vt 0.654785 0.971954
vt 0.654297 0.976074
vt 0.650391 0.940918
vt 0.654785 0.940857
vt 0.650391 0.971909
vt 0.654297 0.936768
vt 0.747559 0.926636
vt 0.746582 0.922607
vt 0.774902 0.694580
vt 0.754395 0.330566
vt 0.774902 0.330566
vt 0.754395 0.694580
vt 0.734375 0.330566
vt 0.734375 0.694580
vt 0.733887 0.694580
vt 0.733887 0.330566
vt 0.753906 0.694580
vt 0.753906 0.330566
vt 0.773926 0.694580
vt 0.773926 0.330566
vt 0.201416 0.888062
vt 0.193970 0.919922
vt 0.180176 0.902405
vt 0.215210 0.905701
vt 0.240967 0.979660
vt 0.222168 0.877625
vt 0.235107 0.911072
vt 0.310791 0.850342
vt 0.280273 0.966888
vt 0.309082 0.966980
vt 0.337891 0.966064
vt 0.338623 0.844971
vt 0.364014 0.849854
vt 0.363281 0.969650
vt 0.388428 0.966461
vt 0.389648 0.845337
vt 0.417480 0.851196
vt 0.417236 0.967804
vt 0.494873 0.912781
vt 0.447510 0.966583
vt 0.487061 0.980789
vt 0.519531 0.907776
vt 0.538086 0.924316
vt 0.530273 0.888672
vt 0.552734 0.907715
vt 0.500488 0.876648
vt 0.973145 0.137207
vt 0.788574 0.101563
vt 0.973145 0.101563
vt 0.788574 0.137207
vt 0.973145 0.716309
vt 0.788574 0.716309
vt 0.973145 0.751831
vt 0.788574 0.751831
vt 0.780273 0.889648
vt 0.780273 0.957214
vt 0.765625 0.923462
vt 0.818359 0.979385
vt 0.818359 0.867554
vt 0.932129 0.979385
vt 0.932129 0.867554
vt 0.970215 0.957214
vt 0.970215 0.889648
vt 0.981934 0.923462
vt 0.490234 0.799194
vt 0.601563 0.884155
vt 0.577637 0.895203
vt 0.614258 0.918030
vt 0.642090 0.899841
vt 0.651855 0.922668
vt 0.672363 0.889954
vt 0.685059 0.910645
vt 0.705566 0.885864
vt 0.694824 0.858643
vt 0.719238 0.853516
vt 0.497803 0.775635
vt 0.245728 0.799194
vt 0.238525 0.775635
vt 0.041260 0.686279
vt 0.058868 0.667725
vt 0.018570 0.645996
vt 0.043243 0.641357
vt 0.018570 0.069336
vt 0.043243 0.069336
vt 0.035828 0.041504
vt 0.066650 0.041504
vt 0.080444 0.015137
vt 0.671387 0.041504
vt 0.665527 0.015137
vt 0.702148 0.041504
vt 0.694824 0.069336
vt 0.719238 0.069336
vt 0.133911 0.881775
vt 0.158203 0.892883
vt 0.121094 0.916138
vt 0.092468 0.897766
vt 0.082520 0.920959
vt 0.063232 0.887756
vt 0.050354 0.908752
vt 0.029449 0.883545
vt 0.043854 0.856079
vt 0.018570 0.850586
vt 0.694336 0.685547
vt 0.677246 0.666748
vt 0.719238 0.645020
vt 0.694824 0.640381
vn -0.246467 0.891293 0.380505
vn -0.586810 0.716636 -0.376843
vn -0.662831 0.646107 0.378338
vn -0.157750 0.911588 -0.379559
vn -0.350230 0.847072 0.399701
vn -0.489822 0.776482 -0.396344
vn -0.628651 0.719291 0.295511
vn -0.578387 0.760338 -0.295480
vn -0.315806 0.876064 0.364299
vn -0.232002 0.901852 -0.364452
vn 0.138157 0.926817 0.349071
vn 0.214362 0.912473 -0.348460
vn 0.530900 0.799463 0.281045
vn 0.622028 0.730796 -0.281014
vn 0.799554 0.485855 0.353008
vn 0.825282 0.440718 -0.353008
vn -0.868801 0.303415 -0.391217
vn -0.894314 0.214972 0.392346
vn -0.911710 -0.155553 -0.380169
vn -0.891415 -0.244942 0.381237
vn -0.713157 -0.609424 -0.346355
vn -0.644795 -0.681051 0.346904
vn 0.909299 0.183386 0.373486
vn 0.920408 0.117038 -0.372936
vn 0.935545 -0.186316 0.299997
vn 0.908017 -0.292428 -0.299905
vn 0.704886 -0.610279 0.361461
vn 0.635762 -0.681783 -0.361827
vn -0.707083 0.110569 0.698386
vn 0.447188 0.139866 0.883419
vn -0.549394 0.635334 0.542650
vn 0.795984 0.460250 0.393078
vn 0.312143 0.722800 -0.616504
vn -0.549181 0.635823 -0.542314
vn -0.707083 0.111545 -0.698233
vn 0.894406 0.070528 -0.441603
vn 0.000000 -0.316996 0.948424
vn 0.000000 -0.948912 0.315439
vn 0.000000 0.316996 0.948424
vn 0.000000 -0.948912 -0.315439
vn 0.000000 -0.316996 -0.948424
vn 0.000000 0.316996 -0.948424
vn 0.000000 0.948912 0.315439
vn 0.000000 0.948912 -0.315439
vn 0.582842 0.658620 0.475875
vn 0.999115 -0.041444 0.000153
vn 0.807031 0.590472 0.000366
vn 0.774102 -0.078219 0.628163
vn 0.917295 -0.398144 0.000214
vn 0.146825 0.759972 0.633137
vn 0.445296 -0.124088 0.886715
vn -0.284524 0.541978 0.790735
vn 0.581500 -0.252693 0.773278
vn -0.093204 -0.115970 0.988861
vn -0.704154 -0.318247 0.634693
vn -0.554094 0.743553 0.374248
vn -0.988067 -0.153844 0.000366
vn -0.911893 -0.410413 0.000366
vn -0.704367 -0.318369 -0.634388
vn -0.666097 0.564165 -0.487808
vn -0.285592 0.541704 -0.790551
vn -0.092471 -0.116428 -0.988861
vn 0.446120 -0.124271 -0.886288
vn 0.582385 -0.253426 -0.772362
vn 0.774499 -0.078799 -0.627644
vn 0.458357 0.793146 -0.400952
vn 0.148320 0.759789 -0.632984
vn 0.306528 -0.909482 0.280770
vn 0.198004 -0.939055 -0.280984
vn -0.168371 -0.919004 0.356456
vn -0.259957 -0.897061 -0.357341
vn -0.303568 0.408765 0.860653
vn -0.002441 0.465499 0.885037
vn 0.381176 0.481429 0.789239
vn 0.318247 0.099277 0.942778
vn -0.102054 0.350108 0.931120
vn -0.113102 0.306375 0.945158
vn -0.426252 0.347026 0.835353
vn -0.442427 0.072817 0.893826
vn -0.302255 -0.118900 0.945769
vn -0.274941 -0.509537 0.815302
vn 0.170965 -0.465316 0.868465
vn 0.354503 -0.106418 0.928953
vn -0.303568 0.408765 -0.860653
vn -0.002441 0.465499 -0.885037
vn 0.381176 0.481429 -0.789239
vn 0.318247 0.099277 -0.942778
vn -0.102054 0.350108 -0.931120
vn -0.113102 0.306375 -0.945158
vn -0.426252 0.347026 -0.835353
vn -0.442427 0.072817 -0.893826
vn -0.302255 -0.118900 -0.945769
vn -0.274941 -0.509537 -0.815302
vn 0.170965 -0.465316 -0.868465
vn 0.354503 -0.106418 -0.928953
usemtl canister
s 1
f 1/1/1 2/2/2 3/3/3
f 2/2/2 1/1/1 4/4/4
f 1/1/1 5/5/5 4/4/4
f 4/4/4 5/5/5 6/6/6
f 6/6/6 5/5/5 7/7/7
f 6/6/6 7/7/7 8/8/8
f 7/7/7 9/9/9 8/8/8
f 8/8/8 9/9/9 10/10/10
f 9/9/9 11/11/11 10/10/10
f 10/10/10 11/11/11 12/12/12
f 11/11/11 13/13/13 12/12/12
f 12/12/12 13/13/13 14/14/14
f 13/13/13 15/15/15 14/14/14
f 14/14/14 15/15/15 16/16/16
f 17/17/17 3/18/3 2/19/2
f 3/18/3 17/17/17 18/20/18
f 17/17/17 19/21/19 18/20/18
f 18/20/18 19/21/19 20/22/20
f 19/21/19 21/23/21 20/22/20
f 20/22/20 21/23/21 22/24/22
f 23/25/23 16/26/16 15/27/15
f 16/26/16 23/25/23 24/28/24
f 24/28/24 23/25/23 25/29/25
f 24/28/24 25/29/25 26/30/26
f 25/29/25 27/31/27 26/30/26
f 26/30/26 27/31/27 28/32/28
f 29/33/29 30/34/30 31/35/31
f 31/35/31 30/34/30 32/36/32
f 31/35/31 33/37/33 34/38/34
f 33/37/33 31/35/31 32/39/32
f 34/38/34 33/40/33 35/41/35
f 35/41/35 33/40/33 36/42/36
f 29/33/29 31/35/31 35/41/35
f 35/41/35 31/35/31 34/38/34
f 33/35/33 32/38/32 36/33/36
f 36/33/36 32/38/32 30/41/30
f 37/43/37 38/44/38 39/45/39
f 38/44/38 37/43/37 40/46/40
f 38/44/38 40/46/40 41/47/41
f 41/47/41 40/46/40 42/48/42
f 37/49/37 39/50/39 43/51/43
f 43/51/43 39/50/39 44/52/44
f 43/51/43 44/52/44 42/53/42
f 42/53/42 44/52/44 41/54/41
f 45/55/45 46/56/46 47/57/47
f 46/56/46 45/55/45 48/58/48
f 46/56/46 48/58/48 49/59/49
f 45/55/45 50/60/50 48/58/48
f 48/58/48 50/60/50 51/61/51
f 51/61/51 50/60/50 52/62/52
f 48/58/48 51/61/51 49/59/49
f 49/59/49 51/61/51 53/63/53
f 53/63/53 51/61/51 54/64/54
f 54/64/54 51/61/51 52/62/52
f 54/64/54 52/62/52 55/65/55
f 55/65/55 52/62/52 56/66/56
f 55/65/55 56/66/56 57/67/57
f 55/65/55 57/67/57 58/68/58
f 57/67/57 59/69/59 58/68/58
f 59/69/59 57/67/57 60/70/60
f 59/69/59 60/70/60 61/71/61
f 59/69/59 61/71/61 62/72/62
f 61/71/61 63/73/63 62/72/62
f 62/72/62 63/73/63 64/74/64
f 64/74/64 63/73/63 49/75/49
f 49/75/49 63/73/63 65/76/65
f 49/75/49 65/76/65 46/77/46
f 65/76/65 66/78/66 46/77/46
f 46/77/46 66/78/66 47/79/47
f 66/78/66 65/76/65 67/80/67
f 67/80/67 65/76/65 63/73/63
f 67/80/67 63/73/63 61/71/61
f 68/81/68 28/82/28 27/83/27
f 28/82/28 68/81/68 69/84/69
f 69/84/69 68/81/68 70/85/70
f 69/84/69 70/85/70 71/86/71
f 70/85/70 22/87/22 71/86/71
f 71/86/71 22/87/22 21/88/21
f 66/89/66 45/90/45 47/91/47
f 45/90/45 66/89/66 50/92/50
f 50/92/50 66/89/66 67/93/67
f 50/92/50 67/93/67 52/94/52
f 52/94/52 67/93/67 61/95/61
f 52/94/52 61/95/61 56/96/56
f 56/96/56 61/95/61 60/97/60
f 56/96/56 60/97/60 57/98/57
f 5/99/5 72/100/72 7/101/7
f 7/101/7 72/100/72 9/102/9
f 9/102/9 72/100/72 73/103/73
f 9/102/9 73/103/73 11/104/11
f 73/103/73 74/105/74 11/104/11
f 11/104/11 74/105/74 13/106/13
f 13/106/13 74/105/74 15/107/15
f 15/107/15 74/105/74 75/108/75
f 15/107/15 75/108/75 23/109/23
f 74/105/74 73/103/73 75/108/75
f 75/108/75 73/103/73 72/100/72
f 75/108/75 72/100/72 76/110/76
f 76/110/76 72/100/72 5/99/5
f 5/99/5 1/111/1 76/110/76
f 76/110/76 1/111/1 77/112/77
f 1/111/1 3/113/3 77/112/77
f 77/112/77 3/113/3 78/114/78
f 3/113/3 18/115/18 78/114/78
f 78/114/78 18/115/18 79/116/79
f 18/115/18 20/117/20 79/116/79
f 78/114/78 79/116/79 77/112/77
f 79/116/79 20/117/20 80/118/80
f 20/117/20 22/119/22 80/118/80
f 79/116/79 80/118/80 77/112/77
f 80/118/80 22/119/22 81/120/81
f 81/120/81 22/119/22 70/121/70
f 80/118/80 81/120/81 82/122/82
f 70/121/70 82/122/82 81/120/81
f 82/122/82 70/121/70 68/123/68
f 82/122/82 68/123/68 27/124/27
f 82/122/82 27/124/27 83/125/83
f 83/125/83 27/124/27 25/126/25
f 83/125/83 25/126/25 23/109/23
f 83/125/83 23/109/23 75/108/75
f 83/125/83 75/108/75 76/110/76
f 83/125/83 76/110/76 77/112/77
f 83/125/83 77/112/77 80/118/80
f 83/125/83 80/118/80 82/122/82
f 84/127/84 6/111/6 8/128/8
f 84/127/84 8/128/8 10/129/10
f 84/127/84 10/129/10 85/130/85
f 85/130/85 10/129/10 12/131/12
f 85/130/85 12/131/12 86/132/86
f 86/132/86 12/131/12 14/133/14
f 86/132/86 14/133/14 16/134/16
f 86/132/86 16/134/16 87/135/87
f 87/135/87 16/134/16 24/136/24
f 86/132/86 87/135/87 85/130/85
f 85/130/85 87/135/87 84/127/84
f 84/127/84 87/135/87 88/112/88
f 84/127/84 88/112/88 6/111/6
f 88/112/88 4/99/4 6/111/6
f 4/99/4 88/112/88 89/110/89
f 4/99/4 89/110/89 2/137/2
f 2/137/2 89/110/89 90/138/90
f 2/137/2 90/138/90 17/139/17
f 17/139/17 90/138/90 91/140/91
f 91/140/91 90/138/90 89/110/89
f 17/139/17 91/140/91 19/126/19
f 91/140/91 89/110/89 92/125/92
f 19/126/19 91/140/91 92/125/92
f 19/126/19 92/125/92 21/124/21
f 21/124/21 92/125/92 93/122/93
f 21/124/21 93/122/93 71/123/71
f 93/122/93 92/125/92 94/120/94
f 71/123/71 93/122/93 94/120/94
f 71/123/71 94/120/94 69/121/69
f 69/121/69 94/120/94 28/119/28
f 28/119/28 94/120/94 95/118/95
f 28/119/28 95/118/95 26/117/26
f 95/118/95 24/136/24 26/117/26
f 24/136/24 95/118/95 87/135/87
f 87/135/87 95/118/95 88/112/88
f 88/112/88 95/118/95 89/110/89
f 89/110/89 95/118/95 92/125/92
f 92/125/92 95/118/95 94/120/94
